# xmcd CD database file
#
# Track frame offsets:
#	150
#	18920
#	39307
#
# Disc length: 796 seconds
#
# Revision: 0
# Processed by: cddbd v1.5PL3 Copyright (c) Steve Scherf et al.
# Submitted via: CDex 1.51
#
DISCID=16031a03
DTITLE=FAIR WARNING - Live And More [CD2]
DYEAR=1998
DGENRE=Hard Rock
TTITLE0=Like A Rock
TTITLE1=Meant To Be
TTITLE2=Out Of The Night
EXTD=YEAR: 1998
EXTT0=
EXTT1=
EXTT2=
PLAYORDER=
